<svg width="22" height="22" viewBox="0 0 22 22" fill="none" xmlns="http://www.w3.org/2000/svg">
<path fill-rule="evenodd" clip-rule="evenodd" d="M20.1666 11C20.1666 16.0627 16.0626 20.1667 11 20.1667C5.93735 20.1667 1.83329 16.0627 1.83329 11C1.83329 5.93743 5.93735 1.83337 11 1.83337C16.0626 1.83337 20.1666 5.93743 20.1666 11ZM15.4968 5.20683C14.255 4.24153 12.6946 3.66671 11 3.66671C6.94987 3.66671 3.66663 6.94995 3.66663 11C3.66663 12.6947 4.24145 14.2551 5.20676 15.4969L15.4968 5.20683ZM16.7932 6.50319C17.7585 7.74498 18.3333 9.30538 18.3333 11C18.3333 15.0501 15.05 18.3334 11 18.3334C9.30531 18.3334 7.74491 17.7586 6.50312 16.7932L16.7932 6.50319Z" fill="#C4C8D4"/>
</svg>
